<?xml version="1.0" encoding="utf-8"?>
<!-- Generator: Adobe Illustrator 25.1.0, SVG Export Plug-In . SVG Version: 6.00 Build 0)  -->
<svg version="1.1" id="Capa_1" xmlns="http://www.w3.org/2000/svg" xmlns:xlink="http://www.w3.org/1999/xlink" x="0px" y="0px"
	 viewBox="0 0 110 45.89" style="enable-background:new 0 0 110 45.89;" xml:space="preserve">
<style type="text/css">
	.st0{fill:#F6F8F9;}
</style>
<g>
	<rect x="0.53" y="39.8" class="st0" width="0.98" height="4.21"/>
	<path class="st0" d="M4.07,40.71c-0.46,0-0.77,0.23-0.93,0.67H3.12v-0.61H2.2v3.25h0.95v-1.83c0-0.37,0.19-0.63,0.52-0.63
		c0.33,0,0.49,0.22,0.49,0.6v1.86h0.95v-2.08C5.11,41.17,4.73,40.71,4.07,40.71"/>
	<path class="st0" d="M6.92,40.05H5.97v0.72h-0.4v0.77h0.4v1.59c0,0.64,0.3,0.9,1.07,0.9c0.18,0,0.32-0.02,0.42-0.04v-0.73
		c-0.06,0.01-0.11,0.01-0.19,0.01c-0.23,0-0.35-0.11-0.35-0.34v-1.38h0.54v-0.77H6.92V40.05z"/>
	<path class="st0" d="M9.39,40.69c-0.91,0-1.48,0.66-1.48,1.71c0,1.04,0.57,1.68,1.51,1.68c0.77,0,1.32-0.43,1.41-1.09H9.98
		c-0.07,0.22-0.28,0.36-0.54,0.36c-0.36,0-0.6-0.27-0.6-0.67v-0.06h2.02v-0.29C10.86,41.33,10.28,40.69,9.39,40.69 M8.85,42.02
		c0.02-0.35,0.25-0.59,0.56-0.59c0.32,0,0.53,0.23,0.55,0.59H8.85z"/>
	<path class="st0" d="M12.33,41.37h-0.02v-0.61h-0.92v3.25h0.95v-1.71c0-0.45,0.22-0.71,0.63-0.71c0.11,0,0.23,0.02,0.31,0.06v-0.89
		c-0.06-0.02-0.15-0.04-0.24-0.04C12.69,40.72,12.44,40.94,12.33,41.37"/>
	<path class="st0" d="M15.6,40.71c-0.46,0-0.77,0.23-0.93,0.67h-0.02v-0.61h-0.92v3.25h0.95v-1.83c0-0.37,0.19-0.63,0.52-0.63
		c0.33,0,0.49,0.22,0.49,0.6v1.86h0.95v-2.08C16.64,41.17,16.27,40.71,15.6,40.71"/>
	<path class="st0" d="M18.66,40.7c-0.81,0-1.34,0.43-1.36,1.09h0.86c0.03-0.2,0.2-0.35,0.46-0.35c0.27,0,0.44,0.14,0.44,0.41v0.19
		l-0.7,0.05c-0.78,0.05-1.21,0.39-1.21,0.99c0,0.58,0.45,0.98,1.01,0.98c0.36,0,0.73-0.18,0.89-0.51h0.02v0.47h0.92v-2.22
		C19.99,41.14,19.46,40.7,18.66,40.7 M19.06,42.84c0,0.3-0.26,0.5-0.57,0.5c-0.24,0-0.4-0.13-0.4-0.34c0-0.2,0.15-0.32,0.42-0.34
		l0.55-0.04V42.84z"/>
	<path class="st0" d="M21.81,40.05h-0.95v0.72h-0.4v0.77h0.4v1.59c0,0.64,0.3,0.9,1.07,0.9c0.18,0,0.32-0.02,0.42-0.04v-0.73
		c-0.06,0.01-0.11,0.01-0.19,0.01c-0.23,0-0.35-0.11-0.35-0.34v-1.38h0.54v-0.77h-0.54V40.05z"/>
	<path class="st0" d="M23.39,39.47c-0.27,0-0.49,0.22-0.49,0.51c0,0.29,0.22,0.51,0.49,0.51c0.27,0,0.49-0.22,0.49-0.51
		C23.88,39.69,23.66,39.47,23.39,39.47"/>
	<rect x="22.92" y="40.76" class="st0" width="0.95" height="3.25"/>
	<path class="st0" d="M25.93,40.7c-0.93,0-1.52,0.64-1.52,1.69c0,1.07,0.58,1.69,1.52,1.69c0.94,0,1.52-0.62,1.52-1.69
		C27.45,41.33,26.86,40.7,25.93,40.7 M25.93,43.32c-0.35,0-0.56-0.33-0.56-0.93c0-0.58,0.21-0.93,0.56-0.93
		c0.34,0,0.56,0.35,0.56,0.93C26.49,42.99,26.28,43.32,25.93,43.32"/>
	<path class="st0" d="M29.86,40.71c-0.46,0-0.77,0.23-0.93,0.67h-0.02v-0.61H28v3.25h0.95v-1.83c0-0.37,0.19-0.63,0.52-0.63
		c0.33,0,0.49,0.22,0.49,0.6v1.86h0.95v-2.08C30.9,41.17,30.53,40.71,29.86,40.71"/>
	<path class="st0" d="M32.92,40.7c-0.81,0-1.34,0.43-1.36,1.09h0.86c0.03-0.2,0.2-0.35,0.46-0.35c0.27,0,0.44,0.14,0.44,0.41v0.19
		l-0.7,0.05c-0.78,0.05-1.21,0.39-1.21,0.99c0,0.58,0.45,0.98,1.01,0.98c0.36,0,0.73-0.18,0.89-0.51h0.02v0.47h0.92v-2.22
		C34.24,41.14,33.71,40.7,32.92,40.7 M33.31,42.84c0,0.3-0.26,0.5-0.57,0.5c-0.24,0-0.4-0.13-0.4-0.34c0-0.2,0.15-0.32,0.42-0.34
		l0.55-0.04V42.84z"/>
	<rect x="34.89" y="39.59" class="st0" width="0.95" height="4.42"/>
	<path class="st0" d="M40.09,41.79v-0.02c0.43-0.06,0.76-0.44,0.76-0.91c0-0.65-0.46-1.05-1.22-1.05h-1.81v4.21h1.86
		c0.83,0,1.36-0.48,1.36-1.21C41.02,42.24,40.61,41.81,40.09,41.79 M38.8,40.56h0.57c0.33,0,0.52,0.17,0.52,0.47
		c0,0.3-0.21,0.49-0.57,0.49H38.8V40.56z M39.39,43.25h-0.6v-1.08h0.59c0.41,0,0.64,0.19,0.64,0.54
		C40.02,43.06,39.8,43.25,39.39,43.25"/>
	<path class="st0" d="M43.48,42.6c0,0.38-0.2,0.63-0.5,0.63c-0.31,0-0.5-0.21-0.5-0.6v-1.85h-0.95v2.08c0,0.76,0.45,1.22,1.09,1.22
		c0.45,0,0.73-0.25,0.87-0.67h0.02v0.61h0.92v-3.25h-0.95V42.6z"/>
	<path class="st0" d="M46.89,42.09l-0.62-0.14c-0.23-0.05-0.34-0.14-0.34-0.27c0-0.17,0.16-0.29,0.4-0.29
		c0.27,0,0.45,0.15,0.46,0.38h0.87c-0.01-0.67-0.51-1.08-1.32-1.08c-0.81,0-1.32,0.41-1.32,1.05c0,0.49,0.31,0.82,0.89,0.96
		l0.56,0.13c0.24,0.06,0.33,0.13,0.33,0.27c0,0.17-0.16,0.28-0.43,0.28c-0.29,0-0.47-0.14-0.5-0.39h-0.92
		c0.04,0.66,0.55,1.09,1.41,1.09c0.83,0,1.39-0.43,1.39-1.1C47.74,42.49,47.49,42.23,46.89,42.09"/>
	<rect x="48.26" y="40.76" class="st0" width="0.95" height="3.25"/>
	<path class="st0" d="M48.73,39.47c-0.27,0-0.49,0.22-0.49,0.51c0,0.29,0.22,0.51,0.49,0.51c0.27,0,0.49-0.22,0.49-0.51
		C49.22,39.69,49,39.47,48.73,39.47"/>
	<path class="st0" d="M51.71,40.71c-0.46,0-0.77,0.23-0.93,0.67h-0.02v-0.61h-0.92v3.25h0.95v-1.83c0-0.37,0.19-0.63,0.52-0.63
		c0.33,0,0.49,0.22,0.49,0.6v1.86h0.95v-2.08C52.75,41.17,52.38,40.71,51.71,40.71"/>
	<path class="st0" d="M54.76,40.69c-0.91,0-1.48,0.66-1.48,1.71c0,1.04,0.57,1.68,1.51,1.68c0.77,0,1.32-0.43,1.41-1.09h-0.86
		c-0.07,0.22-0.28,0.36-0.54,0.36c-0.36,0-0.6-0.27-0.6-0.67v-0.06h2.02v-0.29C56.23,41.33,55.65,40.69,54.76,40.69 M54.22,42.02
		c0.02-0.35,0.25-0.59,0.56-0.59c0.32,0,0.53,0.23,0.55,0.59H54.22z"/>
	<path class="st0" d="M58.58,42.09l-0.62-0.14c-0.23-0.05-0.34-0.14-0.34-0.27c0-0.17,0.16-0.29,0.4-0.29
		c0.27,0,0.45,0.15,0.46,0.38h0.87c-0.01-0.67-0.51-1.08-1.32-1.08c-0.81,0-1.32,0.41-1.32,1.05c0,0.49,0.31,0.82,0.89,0.96
		l0.56,0.13c0.24,0.06,0.33,0.13,0.33,0.27c0,0.17-0.16,0.28-0.43,0.28c-0.29,0-0.47-0.14-0.5-0.39h-0.92
		c0.04,0.66,0.55,1.09,1.41,1.09c0.83,0,1.39-0.43,1.39-1.1C59.43,42.49,59.18,42.23,58.58,42.09"/>
	<path class="st0" d="M61.77,42.09l-0.62-0.14c-0.23-0.05-0.34-0.14-0.34-0.27c0-0.17,0.16-0.29,0.4-0.29
		c0.27,0,0.45,0.15,0.46,0.38h0.87c-0.01-0.67-0.51-1.08-1.32-1.08c-0.81,0-1.32,0.41-1.32,1.05c0,0.49,0.31,0.82,0.89,0.96
		l0.56,0.13c0.24,0.06,0.33,0.13,0.33,0.27c0,0.17-0.16,0.28-0.43,0.28c-0.29,0-0.47-0.14-0.5-0.39h-0.92
		c0.04,0.66,0.55,1.09,1.41,1.09c0.83,0,1.39-0.43,1.39-1.1C62.61,42.49,62.36,42.23,61.77,42.09"/>
	<path class="st0" d="M66.46,41.51l-0.5-0.1c-0.4-0.09-0.58-0.22-0.58-0.44c0-0.26,0.23-0.43,0.57-0.43c0.35,0,0.61,0.18,0.63,0.49
		h0.91c-0.01-0.79-0.58-1.3-1.55-1.3c-0.9,0-1.54,0.53-1.54,1.34c0,0.64,0.37,1.06,1.08,1.21l0.51,0.11c0.44,0.1,0.6,0.21,0.6,0.45
		c0,0.25-0.25,0.44-0.63,0.44c-0.36,0-0.66-0.19-0.7-0.48h-0.94c0.01,0.82,0.62,1.29,1.61,1.29c1,0,1.63-0.53,1.63-1.37
		C67.56,42.05,67.22,41.67,66.46,41.51"/>
	<path class="st0" d="M69.56,43.29c-0.35,0-0.56-0.32-0.56-0.9c0-0.57,0.21-0.9,0.56-0.9c0.29,0,0.48,0.22,0.52,0.55h0.87
		c-0.03-0.8-0.57-1.34-1.4-1.34c-0.92,0-1.51,0.65-1.51,1.69c0,1.06,0.58,1.69,1.51,1.69c0.83,0,1.37-0.5,1.4-1.32h-0.87
		C70.04,43.1,69.85,43.29,69.56,43.29"/>
	<path class="st0" d="M73.37,40.71c-0.46,0-0.78,0.23-0.94,0.67h-0.02v-1.78h-0.93v4.42h0.95v-1.83c0-0.37,0.19-0.63,0.53-0.63
		c0.33,0,0.5,0.23,0.5,0.6v1.85h0.95v-2.08C74.41,41.17,74.03,40.71,73.37,40.71"/>
	<path class="st0" d="M76.45,40.7c-0.93,0-1.52,0.64-1.52,1.69c0,1.07,0.58,1.69,1.52,1.69c0.94,0,1.52-0.62,1.52-1.69
		C77.98,41.33,77.39,40.7,76.45,40.7 M76.45,43.32c-0.35,0-0.56-0.33-0.56-0.93c0-0.58,0.21-0.93,0.56-0.93
		c0.34,0,0.56,0.35,0.56,0.93C77.01,42.99,76.8,43.32,76.45,43.32"/>
	<path class="st0" d="M79.94,40.7c-0.93,0-1.52,0.64-1.52,1.69c0,1.07,0.58,1.69,1.52,1.69c0.94,0,1.52-0.62,1.52-1.69
		C81.46,41.33,80.87,40.7,79.94,40.7 M79.94,43.32c-0.35,0-0.56-0.33-0.56-0.93c0-0.58,0.21-0.93,0.56-0.93
		c0.34,0,0.56,0.35,0.56,0.93C80.5,42.99,80.29,43.32,79.94,43.32"/>
	<rect x="82.02" y="39.59" class="st0" width="0.95" height="4.42"/>
	<path class="st0" d="M23.44,29.97H7.4c-0.48,0-0.86-0.39-0.86-0.86v-7.47c0-0.48,0.39-0.86,0.86-0.86h12.94
		c0.48,0,0.86-0.39,0.86-0.86v-3.48c0-0.48-0.39-0.86-0.86-0.86H7.4c-0.48,0-0.86-0.39-0.86-0.86V7.93c0-0.48,0.39-0.86,0.86-0.86
		h15.53c0.48,0,0.86-0.39,0.86-0.86V2.67c0-0.48-0.39-0.86-0.86-0.86H1.1c-0.48,0-0.86,0.39-0.86,0.86v31.69
		c0,0.48,0.39,0.86,0.86,0.86h22.34c0.48,0,0.86-0.39,0.86-0.86v-3.53C24.31,30.36,23.92,29.97,23.44,29.97"/>
	<path class="st0" d="M26.6,35.22h4.27c0.48,0,0.86-0.39,0.86-0.86V13.62c0-0.88,1.15-1.19,1.6-0.44L46.3,34.8
		c0.16,0.26,0.44,0.42,0.74,0.42h4.69c0.48,0,0.86-0.39,0.86-0.86V2.67c0-0.48-0.39-0.86-0.86-0.86h-4.27
		c-0.48,0-0.86,0.39-0.86,0.86v19.21c0,0.88-1.15,1.19-1.6,0.44L32.96,2.22c-0.16-0.26-0.44-0.42-0.74-0.42H26.6
		c-0.48,0-0.86,0.39-0.86,0.86v31.69C25.74,34.84,26.13,35.22,26.6,35.22"/>
	<path class="st0" d="M72.61,2.38c-0.12-0.34-0.45-0.57-0.81-0.57h-5.25c-0.36,0-0.68,0.23-0.81,0.56L54.08,34.07
		c-0.21,0.56,0.21,1.16,0.81,1.16h4.61c0.37,0,0.69-0.23,0.81-0.57l2.28-6.42c0.12-0.34,0.45-0.57,0.81-0.57h11.23
		c0.36,0,0.69,0.23,0.81,0.57l2.28,6.42c0.12,0.34,0.45,0.57,0.81,0.57h4.87c0.6,0,1.02-0.6,0.81-1.16L72.61,2.38z M72.35,22.5
		h-6.65c-0.59,0-1-0.58-0.82-1.13l3.35-10.09c0.26-0.79,1.38-0.79,1.64,0l3.31,10.09C73.35,21.93,72.93,22.5,72.35,22.5"/>
	<path class="st0" d="M108.9,29.97H92.86c-0.48,0-0.86-0.39-0.86-0.86v-7.47c0-0.48,0.39-0.86,0.86-0.86h12.94
		c0.48,0,0.86-0.39,0.86-0.86v-3.48c0-0.48-0.39-0.86-0.86-0.86H92.86c-0.48,0-0.86-0.39-0.86-0.86V7.93c0-0.48,0.39-0.86,0.86-0.86
		h15.53c0.48,0,0.86-0.39,0.86-0.86V2.67c0-0.48-0.39-0.86-0.86-0.86H86.55c-0.48,0-0.86,0.39-0.86,0.86v31.69
		c0,0.48,0.39,0.86,0.86,0.86h22.34c0.48,0,0.86-0.39,0.86-0.86v-3.53C109.76,30.36,109.37,29.97,108.9,29.97"/>
	<path class="st0" d="M109.26,40.42H86.19c-0.28,0-0.5,0.23-0.5,0.5v2.53c0,0.27,0.22,0.5,0.5,0.5h23.07c0.27,0,0.5-0.23,0.5-0.5
		v-2.53C109.76,40.65,109.54,40.42,109.26,40.42"/>
</g>
</svg>
