<svg xmlns="http://www.w3.org/2000/svg" fill="none" viewBox="0 0 139 68" height="68" width="139">
<path fill="#17110A" d="M0 9.81737C0 6.82874 2.40822 4.39453 5.39685 4.39453C8.38547 4.39453 10.785 6.82874 10.785 9.81737C10.785 12.806 8.36815 15.2575 5.39685 15.2575C2.42555 15.2575 0 12.832 0 9.81737Z"></path>
<path fill="#17110A" d="M11.5094 22.9219H0.90625L14.8792 49.8108H20.917L34.8553 22.9219H24.2522L17.8938 36.7042L11.5094 22.9219Z"></path>
<path fill="#17110A" d="M45.7183 22.9219H36.25V49.8108H45.7183V22.9219Z"></path>
<path fill="#17110A" d="M127.749 22.9194H118.289V49.8083H127.749V38.9627C127.749 34.3541 129.057 30.8284 134.306 30.8284C135.753 30.8284 135.398 30.993 136.706 31.7207V22.5469H136.481C132.799 22.5469 129.551 24.0195 127.74 27.3113V22.9194H127.749Z"></path>
<path fill="#17110A" d="M105.958 22.9187V25.5435C103.983 23.1873 100.76 22.0352 97.6938 22.0352C89.7848 22.0352 84.3359 28.6361 84.3359 36.3459C84.3359 44.0557 89.8974 50.6913 97.7977 50.6913C100.925 50.6913 104.199 49.4872 105.854 46.8277L105.837 49.8077H115.435V22.9187H105.958ZM99.8248 42.7823C95.9612 42.7823 93.7436 40.1748 93.7436 36.7617C93.7436 33.3486 95.9612 30.6805 99.8248 30.6805C103.688 30.6805 105.906 33.4612 105.906 36.7617C105.906 40.0622 103.662 42.7823 99.8248 42.7823Z"></path>
<path fill="#17110A" d="M71.7611 23.0927V26.1333C69.6301 23.2659 66.5809 22.1484 63.2371 22.1484C54.4791 22.1484 48.5625 29.3385 48.5625 37.7586C48.5625 46.1787 54.3145 52.4938 62.6827 52.4938C66.4596 52.4938 69.1364 51.2031 71.7698 48.5609V49.9123C71.7698 54.5728 70.713 58.1679 65.2468 58.1679C64.2939 58.1679 63.2457 57.9426 62.3362 57.5008C61.4439 57.0417 60.7249 56.3227 60.439 55.3092H49.0736C49.9659 62.8977 58.7845 66.3281 65.3508 66.3281C75.8846 66.3281 81.9138 61.373 81.9138 49.1327V23.11H71.7698L71.7611 23.0927ZM65.2035 44.1516C61.0801 44.1516 58.6805 41.3363 58.6805 37.6893C58.6805 34.0423 61.0801 31.1749 65.2035 31.1749C69.3269 31.1749 71.7178 34.1462 71.7178 37.6893C71.7178 41.2323 69.3269 44.1516 65.2035 44.1516Z"></path>
<path fill="#17110A" d="M31.2578 9.81532C31.2578 4.41847 35.6151 0.0351562 40.9773 0.0351562C46.3395 0.0351562 50.6969 4.41847 50.6969 9.81532C50.6969 15.2122 46.3309 19.6215 40.9773 19.6215C35.6238 19.6215 31.2578 15.2382 31.2578 9.81532Z"></path>
<path fill="#17110A" d="M13.4297 9.81677C13.4297 5.62403 16.8081 2.21094 20.9835 2.21094C25.159 2.21094 28.5374 5.62403 28.5374 9.81677C28.5374 14.0095 25.1416 17.4399 20.9835 17.4399C16.8255 17.4399 13.4297 14.0355 13.4297 9.81677Z"></path>
<path fill="#17110A" d="M87.1406 62.7076C87.2186 63.6691 87.4698 65.0032 90.6057 65.0032C91.9917 65.0032 94.3913 64.7953 94.3913 62.7942C94.3913 61.7114 93.8802 61.0617 92.5115 60.8278L90.9002 60.5419C90.3891 60.4553 89.8001 60.334 89.8001 59.8576C89.8001 59.4591 90.3112 59.2945 90.701 59.2945C90.9955 59.2945 91.368 59.3465 91.5499 59.4677C91.6972 59.5717 91.8271 59.7796 91.8618 60.1261H94.244C94.192 58.7574 93.4557 57.9258 90.7443 57.9258C89.3756 57.9258 87.3399 58.255 87.3399 60.1261C87.3399 61.157 88.0415 61.7547 89.237 61.9539L90.8829 62.2225C91.3767 62.3091 91.9311 62.465 91.9311 62.9328C91.9311 63.5652 91.1948 63.6431 90.6923 63.6431C90.3805 63.6431 90.1119 63.6085 89.9127 63.4526C89.7221 63.288 89.6095 63.0541 89.6095 62.7076H87.158H87.1406Z"></path>
<path fill="#17110A" d="M97.7656 61.4688C97.7656 60.1174 98.6318 59.3724 99.7407 59.3724C100.849 59.3724 101.75 60.1174 101.75 61.4688C101.75 62.8202 100.875 63.5652 99.7407 63.5652C98.6059 63.5652 97.7656 62.8202 97.7656 61.4688ZM95.2188 61.4688C95.2188 63.0281 96.2323 65.0032 99.7407 65.0032C103.249 65.0032 104.289 63.0281 104.289 61.4688C104.289 59.9095 103.275 57.9258 99.7407 57.9258C96.2063 57.9258 95.2188 59.9095 95.2188 61.4688Z"></path>
<path fill="#17110A" d="M110.745 67.2747H113.283L117.736 58.1875H115.388L113.465 62.7094L111.672 58.1875H108.883L112.105 64.7625L110.745 67.2747Z"></path>
<path fill="#17110A" d="M120.599 61.4688C120.599 60.1174 121.474 59.3724 122.6 59.3724C123.726 59.3724 124.584 60.1174 124.584 61.4688C124.584 62.8202 123.726 63.5652 122.6 63.5652C121.474 63.5652 120.599 62.8202 120.599 61.4688ZM118.078 61.4688C118.078 63.0281 119.074 65.0032 122.6 65.0032C126.126 65.0032 127.139 63.0281 127.139 61.4688C127.139 59.9095 126.126 57.9258 122.6 57.9258C119.074 57.9258 118.078 59.9095 118.078 61.4688Z"></path>
<path fill="#17110A" d="M136.579 58.1875H134.179V61.0895C134.179 62.5362 133.322 63.3331 132.343 63.3331C131.269 63.3331 130.827 62.6055 130.827 61.5486V58.1875H128.453V61.9384C128.453 63.6537 129.293 65.0137 131.58 65.0137C132.672 65.0137 133.599 64.4679 134.222 63.593H134.257C134.257 63.9915 134.274 64.3727 134.3 64.7711H136.613C136.57 64.3293 136.57 63.8442 136.57 63.4284V58.1962L136.579 58.1875Z"></path>
<path fill="#190E0A" d="M133.885 17.724C132.482 17.724 131.278 17.2216 130.273 16.208C129.268 15.1945 128.766 13.9904 128.766 12.5784C128.766 11.1664 129.268 9.95358 130.264 8.94871C131.269 7.94384 132.473 7.44141 133.885 7.44141C135.297 7.44141 136.484 7.93518 137.489 8.93139C138.494 9.91893 138.996 11.123 138.996 12.5437C138.996 13.9644 138.494 15.1772 137.48 16.1994C136.475 17.2216 135.271 17.724 133.877 17.724H133.885ZM129.537 12.5784C129.537 13.7565 129.952 14.77 130.793 15.6276C131.633 16.4766 132.681 16.9011 133.92 16.9011C135.159 16.9011 136.155 16.4766 136.987 15.6276C137.818 14.7787 138.234 13.7565 138.234 12.5784C138.234 11.4002 137.801 10.3607 136.943 9.52045C136.086 8.68017 135.063 8.2557 133.877 8.2557C132.69 8.2557 131.624 8.68017 130.784 9.52045C129.944 10.3607 129.528 11.3829 129.528 12.587L129.537 12.5784ZM131.979 15.4977V9.64173H134.249C134.812 9.64173 135.228 9.78033 135.497 10.0489C135.765 10.3174 135.895 10.6639 135.895 11.0797C135.895 11.4262 135.765 11.7294 135.514 11.9806C135.263 12.2319 134.951 12.3791 134.596 12.4224C134.951 12.4917 135.202 12.587 135.341 12.717C135.479 12.8469 135.574 13.1328 135.609 13.5832C135.678 14.3369 135.713 14.7267 135.713 14.7354C135.713 15.0559 135.774 15.3071 135.895 15.489H134.942C134.847 15.3504 134.769 14.744 134.708 13.6785C134.682 13.1241 134.388 12.8469 133.842 12.8469H132.932V15.4977H131.979ZM132.932 10.2828V12.0846H134.136C134.674 12.0846 134.951 11.7727 134.951 11.1577C134.951 10.5773 134.674 10.2828 134.128 10.2828H132.941H132.932Z"></path>
</svg>
